<svg id="Capa_1" data-name="Capa 1" xmlns="http://www.w3.org/2000/svg" xmlns:xlink="http://www.w3.org/1999/xlink" viewBox="0 0 32 32"><defs><style>.cls-1{fill:none;}.cls-2{fill:#072188;}.cls-3{fill:#fff;}.cls-4{clip-path:url(#clip-path);}.cls-5{clip-path:url(#clip-path-2);}.cls-6{clip-path:url(#clip-path-3);}.cls-7{clip-path:url(#clip-path-4);}.cls-8{fill:url(#Degradado_sin_nombre);}.cls-9{fill:url(#Degradado_sin_nombre-2);}</style><clipPath id="clip-path"><rect class="cls-1" x="10" y="15" width="13" height="7"/></clipPath><clipPath id="clip-path-2"><rect class="cls-1" x="10" y="19" width="11" height="8"/></clipPath><clipPath id="clip-path-3"><rect class="cls-1" x="14" y="8" width="7" height="7"/></clipPath><clipPath id="clip-path-4"><rect class="cls-1" x="8" y="5" width="18" height="14"/></clipPath><linearGradient id="Degradado_sin_nombre" x1="11" y1="22.46" x2="15.51" y2="22.46" gradientUnits="userSpaceOnUse"><stop offset="0" stop-color="#fff"/><stop offset="1"/></linearGradient><linearGradient id="Degradado_sin_nombre-2" x1="11.37" y1="14.76" x2="21.6" y2="14.76" xlink:href="#Degradado_sin_nombre"/></defs><circle class="cls-2" cx="15.92" cy="16.26" r="15.5"/><path class="cls-3" d="M3.9,15.66c1.84,0,2.1-1,2.1-1.93a16,16,0,0,0-.19-2.17A13.41,13.41,0,0,1,5.59,9.4C5.59,7,7.16,6,9.37,6h.54V7.42H9.44c-1.53,0-2.07.82-2.07,2.24a11.75,11.75,0,0,0,.2,1.85,13.57,13.57,0,0,1,.19,2c0,1.67-.71,2.49-1.87,2.8v0c1.16.3,1.89,1.17,1.87,2.84a13.71,13.71,0,0,1-.19,2A12.14,12.14,0,0,0,7.37,23c0,1.46.62,2.27,2.08,2.27h.46V26.7H9.36c-2.15,0-3.77-.95-3.77-3.56A12.71,12.71,0,0,1,5.81,21,15.31,15.31,0,0,0,6,18.92C6,18.09,5.74,17,3.9,17Z"/><path class="cls-3" d="M28.76,17c-1.84,0-2.11,1.11-2.11,1.94a12.81,12.81,0,0,0,.22,2.1,15.2,15.2,0,0,1,.2,2.12c0,2.61-1.62,3.56-3.77,3.56h-.55V25.27h.46c1.46,0,2.08-.81,2.08-2.27a12.14,12.14,0,0,0-.2-1.86,13.71,13.71,0,0,1-.19-2c0-1.67.71-2.54,1.87-2.84v0c-1.16-.31-1.89-1.13-1.87-2.8a13.57,13.57,0,0,1,.19-2,11.75,11.75,0,0,0,.2-1.85c0-1.42-.54-2.2-2.07-2.24h-.47V6h.54c2.21,0,3.78,1,3.78,3.41a16.07,16.07,0,0,1-.2,2.16,13.42,13.42,0,0,0-.22,2.17c0,.92.27,1.93,2.11,1.93Z"/><g class="cls-4"><path class="cls-3" d="M16,24.44h-.37a2.72,2.72,0,0,1-2.51,1.11,5.48,5.48,0,0,1-1.92-.33l-.33,1.84a7.42,7.42,0,0,0,2.43.41c2.27,0,4.13-.82,4.9-3.23A11.33,11.33,0,0,1,16,24.44Z"/><path class="cls-3" d="M16.31,12.17a15.6,15.6,0,0,0,2.22,1l.06,0V9.67H16.31Z"/><path class="cls-3" d="M18.59,17.82a5.84,5.84,0,0,0-2.28-1.31V21a3.06,3.06,0,0,0,2.28-.8Z"/></g><g class="cls-5"><path class="cls-3" d="M16.31,8.55h2.27v11.7c0,4.66-2.28,6.09-5.29,6.09a7.35,7.35,0,0,1-2.42-.41l.33-1.84a5.47,5.47,0,0,0,1.91.33c2,0,3.2-.92,3.2-4.35Z"/></g><g class="cls-6"><path class="cls-3" d="M16.31,8.55h2.27v11.7c0,4.66-2.28,6.09-5.29,6.09a7.35,7.35,0,0,1-2.42-.41l.33-1.84a5.47,5.47,0,0,0,1.91.33c2,0,3.2-.92,3.2-4.35Z"/></g><g class="cls-7"><path class="cls-3" d="M11.6,21a7.91,7.91,0,0,0,4,1.14c2.32,0,3.67-1.21,3.67-3s-.94-2.58-3.31-3.47c-2.85-1-4.62-2.51-4.62-5C11.38,8,13.64,6,17.05,6a7.92,7.92,0,0,1,3.86.85l-.63,1.85A6.67,6.67,0,0,0,17,7.88c-2.4,0-3.31,1.42-3.31,2.62,0,1.62,1.07,2.42,3.48,3.36,3,1.16,4.47,2.59,4.47,5.15s-2,5-6.13,5A9,9,0,0,1,11,22.92Z"/></g><path class="cls-8" d="M15.5,22.13h0A7.84,7.84,0,0,1,11.6,21L11,22.88a8,8,0,0,0,3.1,1A4.64,4.64,0,0,0,15,23,4.51,4.51,0,0,0,15.5,22.13Z"/><path class="cls-9" d="M17.13,13.82c-2.41-.93-3.48-1.73-3.48-3.36,0-1.19.91-2.62,3.32-2.62a6.66,6.66,0,0,1,3.3.83l.63-1.85A8.05,8.05,0,0,0,17,6c-3.41,0-5.67,2-5.67,4.74,0,2.45,1.77,3.95,4.63,5,2.36.88,3.31,1.84,3.31,3.46a2.93,2.93,0,0,1-.25,1.2A4.5,4.5,0,0,1,19,22a4.64,4.64,0,0,1-.66,1.54A4.74,4.74,0,0,0,21.6,19C21.6,16.41,20.1,15,17.13,13.82Z"/><path class="cls-3" d="M14.82,24c.22,0,.44,0,.65,0l.34,0Z"/></svg>