<?xml version="1.0" encoding="utf-8"?>
<!-- Generator: Adobe Illustrator 25.4.1, SVG Export Plug-In . SVG Version: 6.00 Build 0)  -->
<svg version="1.1" id="Capa_1" xmlns="http://www.w3.org/2000/svg" xmlns:xlink="http://www.w3.org/1999/xlink" x="0px" y="0px"
	 viewBox="0 0 576 512" style="enable-background:new 0 0 576 512;" xml:space="preserve">
<style type="text/css">
	.st0{fill:#FFFFFF;}
</style>
<path class="st0" d="M339.4,367.1c27.3-3.9,51.9-19.4,67.2-42.9L568.3,74.1c12.6-19.5,9.4-45.3-7.6-61.2s-42.9-17.3-61.5-3.3
	L262.5,187.2c-24,18-38.2,46.1-38.4,76.1L339.4,367.1z M319.8,392.5l-116-104.4C144,290.3,96.1,339.6,96.1,400
	c0,3.9,0.2,7.8,0.6,11.6c1.8,17.5-10.2,36.4-27.8,36.4h-4.8c-17.7,0-32,14.3-32,32s14.3,32,32,32h144c61.9,0,112-50.1,112-112
	c0-2.5-0.1-5-0.2-7.5H319.8z"/>
</svg>
